<!--?xml version="1.0" encoding="utf-8"?-->
<!-- Generator: Adobe Illustrator 18.1.1, SVG Export Plug-In . SVG Version: 6.00 Build 0)  -->

<svg version="1.1" id="_x32_" xmlns="http://www.w3.org/2000/svg" xmlns:xlink="http://www.w3.org/1999/xlink" x="0px" y="0px" viewBox="0 0 512 512" style="width: 256px; height: 256px; opacity: 1;" xml:space="preserve">
<style type="text/css">
	.st0{fill:#4B4B4B;}
</style>
<g>
	<path class="st0" d="M343.244,205.496c-31.582,0-57.87,21.791-65.17,51.114c-6.264-2.572-13.501-4.053-21.403-4.099
		c-7.91,0.046-15.147,1.527-21.411,4.099c-7.302-29.323-33.59-51.114-65.171-51.114c-37.206,0-67.362,30.147-67.362,67.373
		c0,37.206,30.156,67.363,67.362,67.363c23.106,0,43.454-11.641,55.594-29.361v27.344h13.019v-60.758h-1.702
		c0.102-1.554,0.462-3.016,0.462-4.589c0-0.981-0.241-1.897-0.297-2.878c4.701-2.554,11.65-4.535,19.506-4.46
		c7.856-0.075,14.796,1.906,19.497,4.45c-0.046,0.971-0.286,1.906-0.286,2.887c0,37.206,30.156,67.363,67.363,67.363
		c37.217,0,67.373-30.157,67.373-67.363C410.617,235.643,380.461,205.496,343.244,205.496z M202.993,305.763
		c-8.458,8.448-20.024,13.63-32.905,13.65c-12.879-0.019-24.447-5.202-32.904-13.65c-8.439-8.448-13.621-20.023-13.639-32.894
		c0.056-25.725,20.847-46.498,46.543-46.543c25.696,0.045,46.498,20.818,46.544,46.543
		C216.623,285.74,211.432,297.315,202.993,305.763z M376.149,305.763c-8.458,8.448-20.024,13.63-32.905,13.65
		c-12.88-0.019-24.446-5.202-32.904-13.65c-8.439-8.448-13.621-20.023-13.64-32.894c0.056-25.725,20.848-46.498,46.544-46.543
		c25.697,0.045,46.498,20.818,46.544,46.543C389.779,285.74,384.587,297.315,376.149,305.763z" style="fill: rgb(0, 0, 0);"></path>
	<path class="st0" d="M495.321,255.759c-8.309-13.824-20.977-20.875-31.304-24.28c-3.081-1.009-5.922-1.684-8.606-2.222
		c0-12.066,0-30.758,0-47.876c-0.064-25.909-5.755-70.241-33.978-109.669c-7.818-10.817-18.459-20.302-30.831-28.842
		c-18.572-12.751-41.13-23.29-64.486-30.832C302.742,4.526,278.638,0.01,256.67,0c-29.267,0.056-62.44,7.976-92.43,20.542
		c-29.925,12.751-56.648,29.684-72.341,51.17c-28.222,39.428-33.914,83.76-33.978,109.669c0,15.981,0,33.358,0,45.424
		c-8.781,0.334-20.052,2.147-30.563,9.902c-5.719,4.266-10.854,10.39-14.241,18.071c-3.414,7.68-5.173,16.73-5.173,27.168
		c0,7.153,0.815,14.99,2.508,23.678c5.552,28.962,20.671,49.33,37.133,62.487c13.741,11.077,28.121,17.451,39.419,21.764
		c8.957,24.817,17.877,43.175,28.186,57.915c11.15,15.999,23.919,27.436,38.308,37.744l0.342,0.241l0.305,0.204
		c1.388,0.823,40.992,25.964,102.526,26.02c61.526-0.056,101.13-25.197,102.508-26.02l0.351-0.231l0.306-0.214
		c14.065-10.086,26.862-20.626,38.151-36.374c10.437-14.536,19.413-33.052,28.444-59.266c11.317-4.238,26.15-10.466,40.233-21.477
		c8.448-6.626,16.554-14.99,23.05-25.548c6.487-10.558,11.281-23.254,13.298-38.031c0.703-5.098,1.046-9.919,1.046-14.49
		C504.084,276.561,500.854,264.893,495.321,255.759z M474.64,300.924c-1.527,11.039-4.895,19.691-9.336,26.954
		c-6.645,10.826-16.009,18.665-26.048,24.614c-10.04,5.95-20.562,9.836-29,12.834l-6.598,2.359l-2.184,6.671
		c-9.28,28.269-17.84,45.721-26.742,58.083c-8.837,12.251-18.22,20.182-31.276,29.591c-3.312,2.018-37.004,21.394-86.786,21.329
		c-26.76,0.01-48.848-5.542-64.125-11.038c-7.634-2.758-13.555-5.487-17.489-7.478c-1.97-0.999-3.433-1.804-4.358-2.331
		l-0.786-0.472c-12.751-9.207-22.245-17.85-31.249-30.674c-9.05-12.918-17.646-30.518-26.862-57.222l-2.258-6.505l-6.468-2.313
		c-10.993-3.897-25.262-9.596-37.503-19.497c-12.234-9.994-22.587-23.55-27.002-45.693c-1.416-7.18-1.989-13.222-1.989-18.191
		c0-7.292,1.212-12.206,2.702-15.527c2.277-4.905,4.904-6.977,8.634-8.754c3.682-1.693,8.569-2.388,12.769-2.369
		c2.536,0,4.784,0.231,6.31,0.445l1.675,0.268l0.334,0.064l17.544,4.128v-18.081c0,0,0-32.544,0-60.739
		c-0.065-21.763,5.33-60.812,28.593-92.939c5.098-7.106,13.39-14.805,23.826-21.976c15.647-10.78,36.033-20.422,57.028-27.167
		c20.995-6.782,42.686-10.697,60.673-10.67c24.003-0.056,54.502,6.977,81.299,18.302c13.426,5.663,25.964,12.362,36.402,19.534
		c10.438,7.171,18.719,14.87,23.818,21.976c23.271,32.127,28.657,71.176,28.591,92.939c0,28.195,0,60.739,0,60.739v15.119
		l15.083-0.814c1.814-0.046,11.594,0.537,19.146,4.848c3.877,2.166,7.189,4.998,9.79,9.254c2.544,4.284,4.589,10.299,4.618,19.821
		C475.417,293.494,475.185,297.01,474.64,300.924z" style="fill: rgb(0, 0, 0);"></path>
	<path class="st0" d="M298.227,367.455c2.989-4.266,5.145-9.068,5.191-14.434c0.01-3.35-0.981-6.858-2.989-9.855l-10.836,7.226
		l0.806,2.629c0.018,1.563-0.786,4.098-2.814,6.93c-2.961,4.257-8.337,8.874-14.278,12.169c-5.922,3.33-12.436,5.33-17.127,5.283
		l-1-0.019h-0.268h-0.25l-0.898,0.019c-6.293,0.093-15.685-3.59-22.801-8.957c-3.58-2.656-6.625-5.673-8.596-8.495
		c-2.026-2.831-2.84-5.366-2.813-6.939l0.786-2.61l-10.807-7.246c-2.027,2.99-3.008,6.514-2.998,9.855
		c0.037,5.376,2.202,10.169,5.173,14.434c0.462,0.648,1.037,1.241,1.546,1.879l-29.731,32.405l9.586,8.799l29.499-32.182
		c2.443,1.86,4.978,3.609,7.69,5.135c7.403,4.109,15.508,6.903,23.466,6.95l1.018-0.028l1.398,0.028
		c10.594-0.111,21.541-4.922,30.563-11.539c0.222-0.148,0.389-0.342,0.593-0.49l29.462,32.127l9.586-8.799l-29.73-32.434
		C297.145,368.677,297.773,368.102,298.227,367.455z" style="fill: rgb(0, 0, 0);"></path>
	<rect x="224.608" y="405.477" class="st0" width="68.345" height="13.019" style="fill: rgb(0, 0, 0);"></rect>
</g>
</svg>
