<?xml version="1.0" encoding="utf-8" ?>
<svg xmlns="http://www.w3.org/2000/svg" xmlns:xlink="http://www.w3.org/1999/xlink" width="3190.8105" height="579.5811" viewBox="0 0 3190.8105 579.5811">
	<path transform="matrix(1 0 0 1 611.159 11.0977)" d="M81.8966 546.022L81.8966 313.629L0 313.629L0 300.312C23.9712 300.312 47.6073 282 53.2663 259.36L117.521 0L204.077 0L166.793 150.156L250.019 150.156L277.32 68.5855L204.747 68.5855L204.747 54.9352L281.979 54.9352L300.291 0.332972L395.506 0.332972L377.529 54.9352L439.448 54.9352L441.448 41.2849L523.345 41.2849L507.033 149.823C513.357 148.824 518.351 143.497 518.351 136.506L518.351 122.855L586.6 122.855C586.6 145.495 568.288 163.806 545.652 163.806L163.799 163.806L163.799 450.135L204.747 450.135L204.747 368.564L177.446 368.564L177.446 354.914L341.24 354.914L341.24 300.312L191.094 300.312L191.094 191.107L464.085 191.107L464.085 177.457L545.652 177.457L545.652 246.376C545.652 276.007 521.68 300.312 491.715 300.312L436.784 300.312L436.784 354.914L477.402 354.914C485.061 354.914 491.05 348.588 491.05 341.263L491.05 327.613L559.299 327.613C559.299 350.253 540.987 368.564 518.351 368.564L436.784 368.564L436.784 450.135L504.703 450.135C512.357 450.135 518.351 444.142 518.351 436.817L518.351 423.167L586.265 423.167C586.265 445.807 567.952 463.785 545.316 463.785L436.454 463.785L436.454 545.687L340.904 545.687L340.904 463.785L163.799 463.785L163.799 546.022L81.8966 546.022ZM272.991 286.661L436.784 286.661C451.766 286.661 464.085 274.343 464.085 259.36L464.085 204.758L272.991 204.758L272.991 286.661ZM286.644 450.135L341.24 450.135L341.24 368.564L286.644 368.564L286.644 450.135ZM345.569 150.156L425.136 150.156L437.454 68.5855L372.864 68.5855L345.569 150.156ZM596.691 546.022L596.691 532.373L613.668 532.373C638.639 532.373 668.599 514.06 681.587 491.419L814.75 258.694L814.75 13.9838L910.3 13.9838L910.3 273.011L941.924 273.011L1096.06 504.736L1096.06 505.069C1105.72 520.054 1126.69 532.373 1141.34 532.373L1141.34 546.022L1041.46 546.022C1026.49 546.022 1005.84 533.368 996.191 518.719L874.34 335.603L777.796 505.069C764.478 527.708 734.183 546.022 709.882 546.022L596.691 546.022ZM1157.82 504.736L1157.82 491.086L1158.49 491.086C1170.14 491.086 1184.13 489.088 1200.44 485.093C1233.4 477.436 1277.68 458.125 1320.29 431.157C1362.57 404.522 1405.51 360.574 1436.81 309.967C1468.1 259.36 1488.74 186.446 1488.74 107.54L1488.74 41.6174L1573.3 41.6174L1573.3 107.54C1573.3 193.438 1551 269.349 1503.39 335.936C1445.46 416.841 1366.23 462.12 1279.01 487.091C1238.39 498.744 1198.11 504.736 1158.49 504.736L1157.82 504.736ZM2003.89 505.402C1966.94 505.402 1946.63 483.761 1933.31 426.829C1931.65 420.17 1920.33 362.904 1898.7 255.032C1877.05 147.16 1864.74 88.5623 1862.41 78.9066C1858.74 65.2563 1846.42 55.2682 1831.78 55.2682C1818.79 55.2682 1808.8 58.5974 1801.48 65.2563C1797.49 68.9185 1795.16 73.2472 1794.49 78.9066C1793.49 85.8985 1791.16 103.545 1788.17 131.512C1784.84 159.478 1780.84 190.774 1776.52 225.067C1773.19 248.04 1765.2 256.697 1726.24 256.697L1654.66 256.697L1654.66 243.046L1667.32 243.046C1676.97 243.046 1682.97 242.38 1690.95 239.384C1698.61 236.387 1703.27 229.728 1704.61 219.407C1710.27 172.13 1716.25 128.182 1723.25 87.8964C1728.57 58.5974 1746.22 41.6174 1773.85 41.6174L1887.37 41.6174C1907.68 41.6174 1916.67 40.952 1932.98 60.2623C1941.31 70.5834 1947.3 82.5693 1950.63 95.5537C1952.29 100.548 1964.28 161.809 1985.92 280.003C2007.56 398.196 2019.88 461.122 2022.21 469.445C2023.21 472.109 2024.87 475.771 2027.2 480.765C2029.19 485.093 2032.52 488.09 2037.19 489.088C2041.85 490.087 2039.18 491.086 2050.17 491.086L2057.82 491.086L2069.81 491.752L2069.81 505.402L2003.89 505.402ZM1976.26 74.5785L1976.26 67.9196L1995.9 67.9196C2014.22 67.9196 2027.2 73.5796 2032.19 85.5655C2035.52 94.5553 2034.86 100.881 2034.86 104.21L2034.86 111.202L1996.9 111.202L1996.9 98.2175C1997.23 97.2185 1997.23 96.2196 1997.23 94.8877C1997.23 88.2293 1996.24 83.5683 1994.24 80.5715C1991.91 76.5763 1987.25 74.5785 1979.59 74.5785L1979.26 74.5785L1976.26 74.5785ZM2014.22 48.2763L2014.22 41.6174L2033.86 41.6174C2052.17 41.6174 2065.15 46.9444 2070.14 59.2633C2073.47 68.5855 2072.81 74.9115 2072.81 78.2412L2072.81 84.8996L2035.19 84.8996L2035.19 71.9153L2035.19 68.5855C2035.19 61.9271 2034.19 57.2655 2032.52 54.2693C2030.19 50.2741 2025.2 48.2763 2017.88 48.2763L2017.21 48.2763L2014.22 48.2763ZM2425.18 504.404C2385.56 504.404 2365.25 485.093 2365.25 456.128L2365.25 41.6174L2449.48 41.6174L2449.48 468.113C2449.48 481.098 2457.8 488.423 2474.78 490.42C2490.76 488.756 2495.09 483.761 2495.09 468.113L2495.09 384.545L2579.65 384.545L2579.65 456.128C2579.65 485.093 2559.34 504.404 2519.73 504.404L2425.18 504.404ZM2116.9 505.069L2116.9 491.419L2155.52 491.419C2173.16 491.419 2187.48 484.427 2197.13 466.782C2206.79 449.136 2214.44 435.486 2218.77 403.523C2229.09 324.283 2227.76 306.971 2227.76 214.746L2227.76 41.2849L2311.99 41.2849L2311.99 214.746C2311.99 344.925 2308.33 363.237 2296.67 410.515C2289.68 439.481 2279.36 452.465 2263.71 469.778C2255.72 478.767 2246.74 485.426 2236.42 489.754C2215.78 498.744 2188.81 505.069 2155.19 505.069L2116.9 505.069Z" fill-rule="nonzero" fill="rgb(255, 255, 255)"/>
	<path transform="matrix(1 0 0 1 107.282 232.619)" d="M272.243 0C236.496 0 206.74 24.6674 198.477 57.861C191.387 54.9494 183.195 53.2732 174.25 53.2209C165.297 53.2732 157.106 54.9494 150.016 57.861C141.75 24.6674 111.994 0 76.2478 0C34.1342 0 0 34.1265 0 76.2661C0 118.383 34.1342 152.521 76.2478 152.521C102.401 152.521 125.433 139.343 139.175 119.284L139.175 150.237L153.911 150.237L153.911 81.4596L151.985 81.4596C152.1 79.7004 152.508 78.0457 152.508 76.2649C152.508 75.1546 152.235 74.1177 152.172 73.0068C157.493 70.1157 165.358 67.8735 174.25 67.9582C183.143 67.8735 190.998 70.1157 196.319 72.9954C196.267 74.0949 195.996 75.1535 195.996 76.2638C195.996 118.381 230.13 152.519 272.244 152.519C314.371 152.519 348.505 118.381 348.505 76.2638C348.504 34.1265 314.37 0 272.243 0ZM113.492 113.502C103.918 123.065 90.8266 128.931 76.2467 128.953C61.6685 128.932 48.5749 123.065 39.0023 113.502C29.4502 103.939 23.5843 90.8357 23.5639 76.2661C23.6275 47.1455 47.1613 23.6304 76.2467 23.5793C105.332 23.6304 128.878 47.1455 128.93 76.2661C128.92 90.8357 123.044 103.939 113.492 113.502ZM309.489 113.502C299.915 123.065 286.823 128.931 272.243 128.953C257.665 128.932 244.573 123.065 234.999 113.502C225.447 103.939 219.582 90.8357 219.56 76.2661C219.623 47.1455 243.158 23.6304 272.243 23.5793C301.33 23.6304 324.875 47.1455 324.927 76.2661C324.917 90.8357 319.04 103.939 309.489 113.502Z" fill-rule="nonzero" fill="rgb(255, 255, 255)"/>
	<path transform="matrix(1 0 0 1 0 0)" d="M551.667 289.518C542.262 273.869 527.922 265.888 516.233 262.033C512.745 260.891 509.53 260.127 506.492 259.518L506.492 205.322C506.419 175.993 499.978 125.81 468.032 81.1778C459.183 68.9327 447.138 58.1957 433.134 48.5286C412.112 34.0947 386.578 22.1644 360.142 13.627C333.684 5.12339 306.401 0.0113093 281.535 0C248.408 0.0634124 210.859 9.02897 176.913 23.2537C143.04 37.6876 112.793 56.8558 95.0297 81.1778C63.0847 125.81 56.6416 175.993 56.5694 205.322L56.5694 256.742C46.6301 257.12 33.8724 259.172 21.9749 267.951C15.5015 272.78 9.68913 279.713 5.85537 288.408C1.99105 297.101 0 307.346 0 319.161C0 327.258 0.922487 336.13 2.83882 345.965C9.12317 378.75 26.2365 401.806 44.87 416.7C60.4234 429.239 76.7004 436.454 89.4889 441.336C99.6274 469.429 109.724 490.21 121.393 506.896C134.013 525.004 148.467 537.954 164.754 549.619L165.141 549.892L165.486 550.125C167.057 551.057 211.885 579.519 281.536 579.581C351.178 579.519 396.006 551.057 397.566 550.125L397.964 549.864L398.31 549.619C414.23 538.204 428.715 526.271 441.493 508.447C453.307 491.992 463.467 471.032 473.689 441.358C486.499 436.561 503.289 429.511 519.229 417.046C528.792 409.545 537.967 400.078 545.32 388.126C552.662 376.174 558.089 361.803 560.369 345.075C561.17 339.304 561.557 333.847 561.557 328.673C561.585 313.065 557.93 299.858 551.667 289.518ZM528.257 340.644C526.529 353.141 522.717 362.934 517.69 371.156C510.168 383.411 499.569 392.285 488.206 399.019C476.841 405.755 464.931 410.153 455.38 413.547L447.912 416.217L445.44 423.769C434.936 455.769 425.247 475.525 415.171 489.519C405.168 503.387 394.547 512.365 379.769 523.015C376.02 525.3 337.884 547.233 281.535 547.159C251.245 547.17 226.244 540.886 208.951 534.664C200.311 531.544 193.608 528.453 189.156 526.197C186.926 525.067 185.27 524.157 184.223 523.561L183.333 523.027C168.9 512.604 158.154 502.821 147.962 488.304C137.718 473.681 127.988 453.758 117.557 423.529L115.001 416.166L107.68 413.547C95.2365 409.136 79.0856 402.685 65.2295 391.477C51.382 380.163 39.6632 364.818 34.6658 339.752C33.0631 331.625 32.4145 324.785 32.4145 319.16C32.4145 310.906 33.7863 305.343 35.4729 301.584C38.0503 296.031 41.0238 293.686 45.2458 291.674C49.4133 289.758 54.945 288.971 59.6989 288.993C62.5699 288.993 65.1142 289.254 66.8415 289.496L68.7374 289.8L69.1153 289.872L88.9735 294.545L88.9735 274.077L88.9735 205.321C88.9002 180.686 95.007 136.482 121.338 100.115C127.109 92.0711 136.494 83.3557 148.307 75.2382C166.018 63.0352 189.093 52.1203 212.858 44.4851C236.622 36.808 261.175 32.3764 281.534 32.4066C308.703 32.3435 343.225 40.3048 373.557 53.1243C388.754 59.5349 402.946 67.1184 414.761 75.2371C426.576 83.3546 435.949 92.0699 441.721 100.114C468.061 136.481 474.158 180.685 474.083 205.32L474.083 274.076L474.083 291.191L491.155 290.27C493.209 290.217 504.279 290.877 512.827 295.758C517.216 298.209 520.965 301.415 523.908 306.233C526.788 311.082 529.103 317.891 529.136 328.67C529.137 332.234 528.874 336.214 528.257 340.644Z" fill-rule="nonzero" fill="rgb(255, 255, 255)"/>
	<path transform="matrix(1 0 0 1 198.739 388.452)" d="M129.835 27.5063C133.217 22.677 135.658 17.2414 135.71 11.1672C135.721 7.37492 134.6 3.40361 132.327 0.0107945L120.061 8.19088L120.974 11.1672C120.994 12.9361 120.084 15.8055 117.789 19.0114C114.437 23.8305 108.352 29.0569 101.627 32.7867C94.9243 36.5563 87.5511 38.8206 82.2409 38.7672L81.1091 38.7456L80.8057 38.7456L80.5228 38.7456L79.5063 38.7672C72.3831 38.8723 61.7526 34.7033 53.6976 28.6279C49.6453 25.6215 46.1988 22.2059 43.9676 19.0114C41.6744 15.8067 40.7534 12.9372 40.7835 11.1569L41.6733 8.20224L29.4411 0C27.1462 3.38432 26.036 7.37375 26.0474 11.1558C26.0894 17.2414 28.54 22.6668 31.903 27.4949C32.4257 28.2285 33.0768 28.8996 33.6529 29.6217L0 66.3041L10.8504 76.2644L44.2403 39.8349C47.0056 41.9401 49.8755 43.9198 52.9447 45.6477C61.3247 50.2986 70.4985 53.4618 79.5063 53.5147L80.6586 53.4829L82.2409 53.5147C94.2322 53.3891 106.624 47.9433 116.835 40.4525C117.087 40.2855 117.276 40.0656 117.507 39.898L150.855 76.2656L161.706 66.3053L128.054 29.5899C128.61 28.8893 129.32 28.2387 129.835 27.5063Z" fill-rule="nonzero" fill="rgb(255, 255, 255)"/>
	<path transform="matrix(1 0 0 1 245.241 458.996)" d="M77.3603 0L0 0L0 14.7373L77.3603 14.7373L77.3603 0Z" fill-rule="nonzero" fill="rgb(255, 255, 255)"/>
</svg>
