<svg width="575" height="129" viewBox="0 0 575 129" fill="none" xmlns="http://www.w3.org/2000/svg">
<path d="M123.562 107.047V66.1484H109.148V63.8047C113.367 63.8047 117.527 60.582 118.523 56.5977L129.832 10.9531H145.066L138.504 37.3789H153.152L157.957 23.0234H145.184V20.6211H158.777L162 11.0117H178.758L175.594 20.6211H186.492L186.844 18.2188H201.258L198.387 37.3203C199.5 37.1445 200.379 36.207 200.379 34.9766V32.5742H212.391C212.391 36.5586 209.168 39.7812 205.184 39.7812H137.977V90.1719H145.184V75.8164H140.379V73.4141H169.207V63.8047H142.781V44.5859H190.828V42.1836H205.184V54.3125C205.184 59.5273 200.965 63.8047 195.691 63.8047H186.023V73.4141H193.172C194.52 73.4141 195.574 72.3008 195.574 71.0117V68.6094H207.586C207.586 72.5938 204.363 75.8164 200.379 75.8164H186.023V90.1719H197.977C199.324 90.1719 200.379 89.1172 200.379 87.8281V85.4258H212.332C212.332 89.4102 209.109 92.5742 205.125 92.5742H185.965V106.988H169.148V92.5742H137.977V107.047H123.562ZM157.195 61.4023H186.023C188.66 61.4023 190.828 59.2344 190.828 56.5977V46.9883H157.195V61.4023ZM159.598 90.1719H169.207V75.8164H159.598V90.1719ZM169.969 37.3789H183.973L186.141 23.0234H174.773L169.969 37.3789ZM214.167 107.047V104.645H217.155C221.55 104.645 226.823 101.422 229.109 97.4375L252.546 56.4805V13.4141H269.363V59H274.929L302.058 99.7812V99.8398C303.757 102.477 307.448 104.645 310.027 104.645V107.047H292.448C289.812 107.047 286.179 104.82 284.48 102.242L263.034 70.0156L246.042 99.8398C243.698 103.824 238.366 107.047 234.089 107.047H214.167ZM312.928 99.7812V97.3789H313.045C315.096 97.3789 317.557 97.0273 320.428 96.3242C326.229 94.9766 334.022 91.5781 341.522 86.832C348.963 82.1445 356.522 74.4102 362.03 65.5039C367.538 56.5977 371.17 43.7656 371.17 29.8789V18.2773H386.053V29.8789C386.053 44.9961 382.127 58.3555 373.748 70.0742C363.553 84.3125 349.608 92.2812 334.256 96.6758C327.108 98.7266 320.018 99.7812 313.045 99.7812H312.928ZM461.838 99.8984C455.334 99.8984 451.76 96.0898 449.416 86.0703C449.123 84.8984 447.131 74.8203 443.323 55.8359C439.514 36.8516 437.346 26.5391 436.936 24.8398C436.291 22.4375 434.123 20.6797 431.545 20.6797C429.26 20.6797 427.502 21.2656 426.213 22.4375C425.51 23.082 425.1 23.8438 424.983 24.8398C424.807 26.0703 424.397 29.1758 423.87 34.0977C423.284 39.0195 422.58 44.5273 421.819 50.5625C421.233 54.6055 419.827 56.1289 412.971 56.1289H400.373V53.7266H402.6C404.299 53.7266 405.354 53.6094 406.76 53.082C408.108 52.5547 408.928 51.3828 409.163 49.5664C410.159 41.2461 411.213 33.5117 412.444 26.4219C413.381 21.2656 416.487 18.2773 421.35 18.2773H441.33C444.905 18.2773 446.487 18.1602 449.358 21.5586C450.823 23.375 451.877 25.4844 452.463 27.7695C452.756 28.6484 454.866 39.4297 458.674 60.2305C462.483 81.0312 464.651 92.1055 465.061 93.5703C465.237 94.0391 465.53 94.6836 465.94 95.5625C466.291 96.3242 466.877 96.8516 467.698 97.0273C468.518 97.2031 468.049 97.3789 469.983 97.3789H471.33L473.44 97.4961V99.8984H461.838ZM456.975 24.0781V22.9062H460.432C463.655 22.9062 465.94 23.9023 466.819 26.0117C467.405 27.5938 467.288 28.707 467.288 29.293V30.5234H460.608V28.2383C460.666 28.0625 460.666 27.8867 460.666 27.6523C460.666 26.4805 460.491 25.6602 460.139 25.1328C459.729 24.4297 458.909 24.0781 457.561 24.0781H457.502H456.975ZM463.655 19.4492V18.2773H467.112C470.334 18.2773 472.62 19.2148 473.498 21.3828C474.084 23.0234 473.967 24.1367 473.967 24.7227V25.8945H467.346V23.6094V23.0234C467.346 21.8516 467.17 21.0312 466.877 20.5039C466.467 19.8008 465.588 19.4492 464.299 19.4492H464.182H463.655ZM535.985 99.7227C529.013 99.7227 525.438 96.3242 525.438 91.2266V18.2773H540.263V93.3359C540.263 95.6211 541.727 96.9102 544.716 97.2617C547.528 96.9688 548.29 96.0898 548.29 93.3359V78.6289H563.173V91.2266C563.173 96.3242 559.598 99.7227 552.626 99.7227H535.985ZM481.727 99.8398V97.4375H488.524C491.63 97.4375 494.149 96.207 495.848 93.1016C497.548 89.9961 498.895 87.5938 499.657 81.9688C501.473 68.0234 501.239 64.9766 501.239 48.7461V18.2188H516.063V48.7461C516.063 71.6562 515.419 74.8789 513.368 83.1992C512.138 88.2969 510.321 90.582 507.567 93.6289C506.161 95.2109 504.579 96.3828 502.763 97.1445C499.13 98.7266 494.384 99.8398 488.466 99.8398H481.727Z" fill="black"/>
<path d="M68.3807 49.9387C62.089 49.9387 56.8519 54.2799 55.3976 60.1216C54.1497 59.6092 52.708 59.3142 51.1337 59.305C49.5579 59.3142 48.1162 59.6092 46.8683 60.1216C45.4136 54.2799 40.1765 49.9387 33.885 49.9387C26.4729 49.9387 20.4652 55.9446 20.4652 63.3607C20.4652 70.7728 26.4729 76.7807 33.885 76.7807C38.4881 76.7807 42.5418 74.4616 44.9603 70.9314V76.3788H47.554V64.2747H47.2149C47.2352 63.9651 47.3069 63.6739 47.3069 63.3605C47.3069 63.1651 47.2589 62.9826 47.2478 62.7871C48.1843 62.2783 49.5687 61.8837 51.1337 61.8986C52.6988 61.8837 54.0814 62.2783 55.0179 62.7851C55.0087 62.9786 54.9609 63.1649 54.9609 63.3603C54.9609 70.7724 60.9686 76.7803 68.3809 76.7803C75.7952 76.7803 81.8029 70.7724 81.8029 63.3603C81.8027 55.9446 75.795 49.9387 68.3807 49.9387ZM40.4401 69.9138C38.7551 71.5968 36.4509 72.6291 33.8848 72.6331C31.319 72.6293 29.0145 71.5968 27.3297 69.9138C25.6485 68.2308 24.6161 65.9248 24.6125 63.3607C24.6237 58.2358 28.7657 54.0974 33.8848 54.0884C39.0039 54.0974 43.1481 58.2358 43.1572 63.3607C43.1554 65.9248 42.1213 68.2308 40.4401 69.9138ZM74.936 69.9138C73.251 71.5968 70.9468 72.6291 68.3807 72.6331C65.8148 72.6293 63.5106 71.5968 61.8256 69.9138C60.1444 68.2308 59.1121 65.9248 59.1083 63.3607C59.1194 58.2358 63.2616 54.0974 68.3807 54.0884C73.5 54.0974 77.644 58.2358 77.6531 63.3607C77.6513 65.9248 76.617 68.2308 74.936 69.9138Z" fill="black"/>
<path d="M98.6773 59.952C97.022 57.198 94.4983 55.7933 92.4409 55.115C91.8271 54.9139 91.2612 54.7795 90.7265 54.6723C90.7265 52.2685 90.7265 48.5447 90.7265 45.1345C90.7137 39.9729 89.58 31.1412 83.9574 23.2864C82.3999 21.1314 80.28 19.2418 77.8153 17.5405C74.1154 15.0003 69.6214 12.9007 64.9685 11.3982C60.3119 9.90166 55.51 9.00199 51.1335 9C45.303 9.01116 38.6943 10.589 32.7197 13.0924C26.7581 15.6326 21.4344 19.006 18.3081 23.2864C12.6857 31.1412 11.5517 39.9729 11.539 45.1345C11.539 48.3182 11.539 51.78 11.539 54.1838C9.78966 54.2503 7.54426 54.6115 5.45027 56.1565C4.31094 57.0063 3.28795 58.2264 2.6132 59.7566C1.93307 61.2866 1.58264 63.0895 1.58264 65.1689C1.58264 66.5939 1.745 68.1552 2.08228 69.886C3.18834 75.6558 6.20033 79.7135 9.47987 82.3346C12.2173 84.5414 15.0821 85.8112 17.3329 86.6704C19.1173 91.6144 20.8943 95.2717 22.9481 98.2082C25.1693 101.395 27.7132 103.674 30.5797 105.727L30.6479 105.775L30.7086 105.816C30.9851 105.98 38.875 110.989 51.1337 111C63.3909 110.989 71.2807 105.98 71.5552 105.816L71.6252 105.77L71.6861 105.727C74.4881 103.718 77.0375 101.618 79.2865 98.4811C81.3658 95.5853 83.154 91.8965 84.9531 86.6742C87.2077 85.8299 90.1627 84.5892 92.9683 82.3956C94.6513 81.0755 96.2661 79.4093 97.5603 77.3059C98.8526 75.2026 99.8076 72.6733 100.209 69.7294C100.35 68.7138 100.418 67.7534 100.418 66.8428C100.423 64.0961 99.7796 61.7717 98.6773 59.952ZM94.5572 68.9497C94.253 71.1489 93.5821 72.8725 92.6973 74.3194C91.3735 76.4762 89.508 78.0379 87.5081 79.223C85.5079 80.4084 83.4117 81.1825 81.7307 81.7798L80.4163 82.2497L79.9812 83.5787C78.1324 89.2104 76.4271 92.6872 74.6537 95.15C72.8932 97.5906 71.0239 99.1706 68.4229 101.045C67.7631 101.447 61.051 105.307 51.1335 105.294C45.8024 105.296 41.4021 104.19 38.3586 103.095C36.8378 102.546 35.6582 102.002 34.8745 101.605C34.482 101.406 34.1906 101.246 34.0063 101.141L33.8497 101.047C31.3095 99.2128 29.4181 97.491 27.6243 94.9362C25.8214 92.3627 24.1089 88.8564 22.2729 83.5365L21.8231 82.2406L20.5345 81.7798C18.3445 81.0034 15.5019 79.8681 13.0632 77.8956C10.626 75.9046 8.56347 73.204 7.68391 68.7927C7.40182 67.3623 7.28767 66.1586 7.28767 65.1687C7.28767 63.716 7.52912 62.7371 7.82596 62.0755C8.27958 61.0983 8.80293 60.6855 9.54601 60.3315C10.2795 59.9942 11.2531 59.8558 12.0898 59.8596C12.5951 59.8596 13.0429 59.9056 13.3469 59.9482L13.6806 60.0016L13.7471 60.0143L17.2422 60.8367V57.2346C17.2422 57.2346 17.2422 50.7513 17.2422 45.1343C17.2293 40.7987 18.3041 33.0194 22.9385 26.6191C23.9541 25.2035 25.606 23.6697 27.6851 22.2411C30.8023 20.0935 34.8635 18.1726 39.0461 16.8289C43.2287 15.4778 47.55 14.6979 51.1333 14.7032C55.9152 14.6921 61.9911 16.0932 67.3296 18.3493C70.0043 19.4775 72.5021 20.8121 74.5816 22.2409C76.661 23.6695 78.3107 25.2033 79.3266 26.6189C83.9626 33.0192 85.0356 40.7985 85.0224 45.1341C85.0224 50.7511 85.0224 57.2344 85.0224 57.2344V60.2464L88.0272 60.0843C88.3886 60.0751 90.337 60.1912 91.8415 61.0501C92.6139 61.4816 93.2737 62.0458 93.7918 62.8937C94.2987 63.7471 94.706 64.9454 94.7118 66.8424C94.712 67.4695 94.6658 68.17 94.5572 68.9497Z" fill="black"/>
<path d="M59.4125 82.204C60.0079 81.3541 60.4374 80.3975 60.4466 79.3285C60.4486 78.6611 60.2512 77.9622 59.8511 77.3651L57.6924 78.8047L57.853 79.3285C57.8566 79.6398 57.6964 80.1448 57.2924 80.709C56.7025 81.5571 55.6315 82.4769 54.4479 83.1333C53.2682 83.7967 51.9705 84.1952 51.0359 84.1858L50.8367 84.182H50.7833H50.7335L50.5546 84.1858C49.3009 84.2043 47.4299 83.4706 46.0122 82.4014C45.299 81.8723 44.6924 81.2712 44.2997 80.709C43.8961 80.145 43.734 79.64 43.7393 79.3267L43.8959 78.8067L41.743 77.3632C41.3391 77.9588 41.1437 78.6609 41.1457 79.3265C41.1531 80.3975 41.5844 81.3523 42.1763 82.202C42.2683 82.3311 42.3829 82.4492 42.4843 82.5763L36.5613 89.032L38.471 90.7849L44.3477 84.3737C44.8344 84.7442 45.3395 85.0926 45.8797 85.3967C47.3546 86.2152 48.9692 86.7719 50.5546 86.7812L50.7574 86.7756L51.0359 86.7812C53.1464 86.7591 55.3273 85.8007 57.1246 84.4824C57.1689 84.453 57.2021 84.4143 57.2428 84.3848L63.1122 90.7851L65.0219 89.0322L59.0991 82.5707C59.1969 82.4474 59.322 82.3329 59.4125 82.204Z" fill="black"/>
<path d="M58.3618 89.7786H44.7462V92.3722H58.3618V89.7786Z" fill="black"/>
</svg>
